HIERARCHY
ROOT Hips
{
	OFFSET -21.947001 39.810204 44.525997
	CHANNELS 6 Xposition Yposition Zposition Zrotation Xrotation Yrotation
	JOINT Chest
	{
		OFFSET -0.201599 0.334099 6.453201
		CHANNELS 6 Xposition Yposition Zposition Zrotation Xrotation Yrotation
		JOINT Chest2
		{
			OFFSET 0.000000 0.000000 3.568001
			CHANNELS 6 Xposition Yposition Zposition Zrotation Xrotation Yrotation
			JOINT Neck
			{
				OFFSET 0.000000 0.000000 8.296402
				CHANNELS 6 Xposition Yposition Zposition Zrotation Xrotation Yrotation
				JOINT Head
				{
					OFFSET 0.000000 0.000000 2.173901
					CHANNELS 6 Xposition Yposition Zposition Zrotation Xrotation Yrotation
					End Site
					{
						OFFSET 0.000000 0.000000 7.891998
					}
				}
			}
			JOINT LeftCollar
			{
				OFFSET 1.927601 0.221401 6.049000
				CHANNELS 6 Xposition Yposition Zposition Zrotation Xrotation Yrotation
				JOINT LeftShoulder
				{
					OFFSET 4.959700 0.000000 0.000000
					CHANNELS 6 Xposition Yposition Zposition Zrotation Xrotation Yrotation
					JOINT LeftElbow
					{
						OFFSET 0.000000 0.000000 -8.654202
						CHANNELS 6 Xposition Yposition Zposition Zrotation Xrotation Yrotation
						JOINT LeftWrist
						{
							OFFSET 0.000000 0.000000 -13.864101
							CHANNELS 6 Xposition Yposition Zposition Zrotation Xrotation Yrotation
							End Site
							{
								OFFSET 0.000000 0.000000 -2.173901
							}
						}
					}
				}
			}
			JOINT RightCollar
			{
				OFFSET -3.155701 -0.764999 6.687801
				CHANNELS 6 Xposition Yposition Zposition Zrotation Xrotation Yrotation
				JOINT RightShoulder
				{
					OFFSET -3.592899 0.000000 0.000000
					CHANNELS 6 Xposition Yposition Zposition Zrotation Xrotation Yrotation
					JOINT RightElbow
					{
						OFFSET 0.000000 0.000000 -10.352398
						CHANNELS 6 Xposition Yposition Zposition Zrotation Xrotation Yrotation
						JOINT RightWrist
						{
							OFFSET 0.000000 0.000000 -12.750301
							CHANNELS 6 Xposition Yposition Zposition Zrotation Xrotation Yrotation
							End Site
							{
								OFFSET 0.000000 0.000000 -2.173901
							}
						}
					}
				}
			}
		}
	}
	JOINT LeftHip
	{
		OFFSET 2.460600 -0.518101 -2.735500
		CHANNELS 6 Xposition Yposition Zposition Zrotation Xrotation Yrotation
		JOINT LeftKnee
		{
			OFFSET 0.000000 -0.000004 -17.005899
			CHANNELS 6 Xposition Yposition Zposition Zrotation Xrotation Yrotation
			JOINT LeftAnkle
			{
				OFFSET 0.000000 0.000000 -19.194401
				CHANNELS 6 Xposition Yposition Zposition Zrotation Xrotation Yrotation
				End Site
				{
					OFFSET 0.000000 -8.134600 0.000000
				}
			}
		}
	}
	JOINT RightHip
	{
		OFFSET -3.115499 -0.679600 -2.320301
		CHANNELS 6 Xposition Yposition Zposition Zrotation Xrotation Yrotation
		JOINT RightKnee
		{
			OFFSET 0.000000 -0.000004 -17.680401
			CHANNELS 6 Xposition Yposition Zposition Zrotation Xrotation Yrotation
			JOINT RightAnkle
			{
				OFFSET 0.000000 0.000000 -16.993797
				CHANNELS 6 Xposition Yposition Zposition Zrotation Xrotation Yrotation
				End Site
				{
					OFFSET 0.000000 -8.842300 0.000000
				}
			}
		}
	}
}
MOTION
Frames: 4
Frame Time: 0.041667
-34.042297 24.675701 41.678093 1410.870977 1.509931 -11.097934 -0.201604 0.334097 6.453199 29.461000 0.479071 9.869489 0.000001 0.000003 3.568005 -19.480458 0.588300 -3.128466 -0.000001 -0.000002 8.296397 61.274720 7.782780 -10.846371 -0.000001 0.000002 2.173904 5.779172 -1.247843 9.265118 1.927599 0.221401 6.049002 -7.277821 -9.159537 15.873180 4.959697 0.000007 0.000010 30.378038 -9.924186 -102.669457 0.000000 -0.000000 -8.654201 79.184897 -13.279413 7.109269 0.000003 -0.000005 -13.864098 964.005359 -153.009829 190.166113 -3.155704 -0.764997 6.687809 22.510389 -2.924773 100.866137 -3.592896 0.000006 0.000013 -55.535800 -39.480611 58.315773 -0.000002 -0.000004 -10.352389 -41.293541 -114.735608 -7.751540 0.000002 -0.000006 -12.750309 -631.243679 3.461815 13.450912 2.460595 -0.518100 -2.735497 1.199610 -9.008374 6.673198 0.000000 -0.000003 -17.005901 -54.336498 11.682580 32.277924 -0.000002 0.000001 -19.194401 45.490644 5.710024 34.521146 -3.115499 -0.679586 -2.320303 -31.220965 -43.789460 -3.565289 -0.000002 -0.000001 -17.680397 -288.232234 -7.333507 -110.787950 0.000006 -0.000000 -16.993790 285.248234 24.706787 -53.179566
-34.053596 24.665501 41.677387 1410.901904 1.502752 -11.140663 -0.201592 0.334098 6.453207 29.434519 0.450704 9.908438 0.000004 0.000008 3.567999 -19.388901 0.631580 -3.103736 0.000003 -0.000001 8.296396 61.299746 7.761824 -10.836094 0.000001 -0.000001 2.173905 5.831328 -1.249805 9.231311 1.927599 0.221404 6.049001 -7.285716 -9.167749 15.810518 4.959701 0.000007 0.000005 30.349652 -9.885816 -102.605984 -0.000007 0.000000 -8.654200 79.259564 -13.324937 7.134391 0.000005 0.000000 -13.864100 963.946455 -152.964395 189.953612 -3.155704 -0.764996 6.687807 22.541404 -2.824065 100.728119 -3.592908 0.000002 0.000008 -55.505590 -39.358149 58.379450 -0.000009 -0.000004 -10.352386 -41.583889 -114.854030 -7.753196 0.000005 0.000004 -12.750300 -631.315970 3.479259 13.270008 2.460604 -0.518101 -2.735493 1.214518 -8.994180 6.740476 -0.000002 0.000000 -17.005905 -54.289820 11.784131 32.306679 -0.000001 0.000002 -19.194401 45.429589 5.588991 34.474133 -3.115488 -0.679593 -2.320299 -31.187419 -43.801580 -3.485966 -0.000006 0.000005 -17.680403 -288.229147 -7.381426 -110.767671 -0.000002 -0.000001 -16.993788 285.208756 24.699706 -53.191300
-34.065498 24.656603 41.677792 1410.930864 1.501544 -11.173280 -0.201591 0.334098 6.453199 29.415169 0.410318 9.921236 -0.000005 0.000002 3.568001 -19.308450 0.679361 -3.078425 0.000001 0.000004 8.296398 61.300162 7.765919 -10.799242 0.000001 0.000000 2.173898 5.871196 -1.160821 9.196870 1.927602 0.221401 6.049004 -7.286596 -9.167541 15.746407 4.959700 0.000003 0.000003 30.328864 -9.843422 -102.517827 -0.000001 0.000000 -8.654197 79.410265 -13.342109 7.154354 0.000002 0.000004 -13.864100 963.916293 -152.954163 189.961249 -3.155708 -0.764995 6.687808 22.584803 -2.630244 100.712738 -3.592897 0.000002 0.000008 -55.729409 -39.301957 58.426394 -0.000006 -0.000001 -10.352402 -41.406666 -114.956865 -7.523904 0.000002 -0.000000 -12.750303 -631.308812 3.741097 13.153568 2.460604 -0.518097 -2.735508 1.232884 -8.987849 6.797545 -0.000005 -0.000003 -17.005903 -54.193108 11.897256 32.278538 -0.000002 0.000000 -19.194399 45.296647 5.584654 34.451891 -3.115485 -0.679594 -2.320302 -31.211335 -43.835908 -3.476580 -0.000004 0.000000 -17.680397 -288.222126 -7.562658 -110.769139 0.000005 0.000001 -16.993792 285.023903 24.695806 -53.249289
-34.078400 24.648706 41.679497 1410.951409 1.497276 -11.188182 -0.201597 0.334095 6.453205 29.406355 0.365415 9.901491 0.000004 0.000005 3.568002 -19.230353 0.722774 -3.053220 -0.000008 0.000001 8.296400 61.261585 7.790880 -10.742778 -0.000000 0.000009 2.173909 5.932105 -1.177466 9.177501 1.927598 0.221406 6.049004 -7.346256 -9.108756 15.716848 4.959703 0.000005 0.000003 30.356817 -9.821820 -102.417710 0.000003 0.000000 -8.654202 79.758571 -13.324252 7.160825 0.000007 0.000004 -13.864100 963.819250 -153.051166 190.137659 -3.155713 -0.764990 6.687810 22.634904 -2.341587 100.761088 -3.592901 0.000004 0.000002 -56.070218 -39.218946 58.504047 0.000002 0.000007 -10.352385 -40.827172 -115.043731 -7.000477 -0.000006 -0.000007 -12.750306 -631.241220 3.638425 12.848619 2.460600 -0.518101 -2.735501 1.273563 -8.979291 6.842205 -0.000008 -0.000003 -17.005898 -54.090703 12.024616 32.257628 -0.000001 0.000003 -19.194401 45.165893 5.602980 34.345401 -3.115495 -0.679596 -2.320301 -31.238762 -43.846922 -3.483845 -0.000010 0.000001 -17.680397 -288.161528 -7.531073 -110.785757 0.000006 -0.000000 -16.993792 285.049585 24.696605 -53.224280
